<?xml version="1.0" encoding="iso-8859-1"?>
<!-- Generator: Adobe Illustrator 19.0.0, SVG Export Plug-In . SVG Version: 6.00 Build 0)  -->
<svg xmlns="http://www.w3.org/2000/svg" xmlns:xlink="http://www.w3.org/1999/xlink" x="0px" y="0px"
	 viewBox="0 0 512 512" xml:space="preserve">
	<polygon style="fill:#00CDCD;" points="224.559,0 2.407,185.11 27.56,215.274 64.111,184.815 64.111,408.735 152.539,408.735 
		152.539,369.434 103.412,369.434 103.412,152.097 224.559,51.092 421.656,215.274 446.809,185.11 "/>
	<path style="fill:#6A7D98;" d="M509.593,482.622l-91.179-82.631c37.12-57.93,20.25-134.991-37.69-172.111
		s-134.991-20.25-172.111,37.69s-20.25,134.991,37.69,172.111c45.275,29.004,104.051,25.693,145.779-8.214L483.163,512
		L509.593,482.622z M314.068,417.48c-47.044,0-85.186-38.142-85.186-85.186s38.142-85.186,85.186-85.186s85.186,38.142,85.186,85.186
		l0,0C399.195,379.318,361.092,417.421,314.068,417.48z"/>
</svg>